<?xml version="1.0" standalone="no"?>
<!DOCTYPE svg PUBLIC "-//W3C//DTD SVG 20010904//EN"
 "http://www.w3.org/TR/2001/REC-SVG-20010904/DTD/svg10.dtd">
<svg version="1.0" xmlns="http://www.w3.org/2000/svg"
 width="512.000000pt" height="512.000000pt" viewBox="0 0 512.000000 512.000000"
 preserveAspectRatio="xMidYMid meet">

<g transform="translate(0.000000,512.000000) scale(0.100000,-0.100000)"
fill="#000000" stroke="none">
<path d="M2285 3310 c-470 -54 -893 -242 -1084 -484 -100 -128 -144 -240 -145
-371 -1 -155 64 -294 199 -430 199 -200 499 -335 900 -406 153 -27 489 -37
661 -20 723 73 1250 436 1248 861 -1 343 -350 649 -899 789 -190 49 -310 63
-560 66 -132 2 -276 0 -320 -5z m-281 -643 c118 -54 200 -170 212 -298 7 -73
-6 -112 -52 -148 -72 -57 -194 2 -194 94 0 71 -51 127 -115 127 -49 0 -80 -23
-104 -77 -48 -109 -186 -115 -232 -10 -22 49 -19 75 14 140 46 91 118 154 215
186 77 26 181 20 256 -14z m1357 17 c105 -31 185 -99 229 -195 36 -80 23 -151
-36 -190 -65 -43 -147 -13 -189 70 -28 56 -51 73 -101 73 -63 0 -114 -57 -114
-127 0 -95 -125 -152 -198 -90 -42 35 -56 75 -49 145 20 223 244 377 458 314z"/>
</g>
</svg>
